<?xml version="1.0" encoding="UTF-8" standalone="no"?>
<svg
   xmlns:dc="http://purl.org/dc/elements/1.1/"
   xmlns:cc="http://creativecommons.org/ns#"
   xmlns:rdf="http://www.w3.org/1999/02/22-rdf-syntax-ns#"
   xmlns:svg="http://www.w3.org/2000/svg"
   xmlns="http://www.w3.org/2000/svg"
   id="svg3873"
   version="1.1"
   fill="none"
   viewBox="0 0 208 59"
   height="59"
   width="208">
  <metadata
     id="metadata3877">
    <rdf:RDF>
      <cc:Work
         rdf:about="">
        <dc:format>image/svg+xml</dc:format>
        <dc:type
           rdf:resource="http://purl.org/dc/dcmitype/StillImage" />
        <dc:title></dc:title>
      </cc:Work>
    </rdf:RDF>
  </metadata>
  <path
     id="path3815"
     fill="url(#paint0_linear)"
     d="M23.1717 0.00225275H2.10801C1.83111 0.00198299 1.55687 0.0563243 1.30099 0.162166C1.04512 0.268008 0.812623 0.423273 0.616822 0.619074C0.421021 0.814875 0.265757 1.04737 0.159915 1.30325C0.0540725 1.55912 -0.000268756 1.83336 9.99408e-07 2.11027V23.174C-0.000268756 23.4509 0.0540725 23.7251 0.159915 23.981C0.265757 24.2369 0.421021 24.4694 0.616822 24.6652C0.812623 24.861 1.04512 25.0163 1.30099 25.1221C1.55687 25.2279 1.83111 25.2823 2.10801 25.282H23.1717C23.4493 25.2834 23.7245 25.2298 23.9813 25.1245C24.2381 25.0191 24.4716 24.864 24.6682 24.6681C24.8649 24.4722 25.0209 24.2393 25.1273 23.9829C25.2336 23.7265 25.2882 23.4516 25.288 23.174V2.11027C25.2882 1.83267 25.2336 1.55776 25.1273 1.30134C25.0209 1.04493 24.8649 0.81207 24.6682 0.616161C24.4716 0.420253 24.2381 0.265159 23.9813 0.159802C23.7245 0.0544439 23.4493 0.000901122 23.1717 0.00225275V0.00225275ZM21.074 21.0762H4.21398V4.21623H21.074V21.0762Z" />
  <path
     id="path3817"
     fill="url(#paint1_linear)"
     d="M23.1717 33.7202H2.10801C1.83111 33.72 1.55687 33.7743 1.30099 33.8801C1.04512 33.986 0.812623 34.1413 0.616822 34.3371C0.421021 34.5329 0.265757 34.7654 0.159915 35.0213C0.0540725 35.2771 -0.000268756 35.5514 9.99408e-07 35.8283V56.892C-0.000268756 57.1689 0.0540725 57.4431 0.159915 57.699C0.265757 57.9549 0.421021 58.1874 0.616822 58.3832C0.812623 58.579 1.04512 58.7343 1.30099 58.8401C1.55687 58.946 1.83111 59.0003 2.10801 59H23.1717C23.4487 59.0003 23.7229 58.946 23.9788 58.8401C24.2346 58.7343 24.4671 58.579 24.6629 58.3832C24.8587 58.1874 25.014 57.9549 25.1198 57.699C25.2257 57.4431 25.28 57.1689 25.2798 56.892V35.8283C25.28 35.5514 25.2257 35.2771 25.1198 35.0213C25.014 34.7654 24.8587 34.5329 24.6629 34.3371C24.4671 34.1413 24.2346 33.986 23.9788 33.8801C23.7229 33.7743 23.4487 33.72 23.1717 33.7202ZM21.0637 54.7942H4.21398V37.9342H21.074L21.0637 54.7942Z" />
  <path
     id="path3819"
     fill="url(#paint2_linear)"
     d="M56.8897 33.7202H35.826C35.5491 33.72 35.2749 33.7743 35.019 33.8801C34.7631 33.986 34.5306 34.1413 34.3348 34.3371C34.139 34.5329 33.9837 34.7654 33.8779 35.0213C33.772 35.2771 33.7177 35.5514 33.718 35.8283V56.892C33.7177 57.1689 33.772 57.4431 33.8779 57.699C33.9837 57.9549 34.139 58.1874 34.3348 58.3832C34.5306 58.579 34.7631 58.7343 35.019 58.8401C35.2749 58.946 35.5491 59.0003 35.826 59H56.8897C57.1666 59.0003 57.4408 58.946 57.6967 58.8401C57.9526 58.7343 58.1851 58.579 58.3809 58.3832C58.5767 58.1874 58.732 57.9549 58.8378 57.699C58.9437 57.4431 58.998 57.1689 58.9977 56.892V35.8283C58.998 35.5514 58.9437 35.2771 58.8378 35.0213C58.732 34.7654 58.5767 34.5329 58.3809 34.3371C58.1851 34.1413 57.9526 33.986 57.6967 33.8801C57.4408 33.7743 57.1666 33.72 56.8897 33.7202V33.7202ZM54.7817 54.7942H37.9217V37.9342H54.7817V54.7942Z" />
  <path
     id="path3821"
     fill="url(#paint3_linear)"
     d="M58.3887 18.351C58.5844 18.1554 58.7397 17.9232 58.8457 17.6676C58.9516 17.4119 59.0061 17.138 59.0061 16.8612C59.0061 16.5845 58.9516 16.3105 58.8457 16.0549C58.7397 15.7993 58.5844 15.5671 58.3887 15.3715L43.6367 0.617441C43.4411 0.421699 43.2089 0.266418 42.9533 0.160474C42.6977 0.0545303 42.4236 0 42.1469 0C41.8702 0 41.5963 0.0545303 41.3406 0.160474C41.085 0.266418 40.8528 0.421699 40.6572 0.617441L25.9032 15.3817C25.7074 15.5773 25.5521 15.8096 25.4462 16.0652C25.3402 16.3208 25.2857 16.5948 25.2857 16.8715C25.2857 17.1482 25.3402 17.4222 25.4462 17.6778C25.5521 17.9334 25.7074 18.1657 25.9032 18.3613L40.6551 33.1133C40.8507 33.309 41.083 33.4643 41.3386 33.5702C41.5942 33.6762 41.8682 33.7307 42.1449 33.7307C42.4216 33.7307 42.6956 33.6762 42.9512 33.5702C43.2068 33.4643 43.4391 33.309 43.6347 33.1133L58.3867 18.3613L58.3887 18.351ZM30.3755 16.8602L42.148 5.08774L53.9204 16.8602L42.148 28.6327L30.3755 16.8602Z" />
  <defs
     id="defs3871">
    <linearGradient
       gradientUnits="userSpaceOnUse"
       y2="25.282"
       x2="12.644"
       y1="0.00222778"
       x1="12.644"
       id="paint0_linear">
      <stop
         id="stop3831"
         stop-color="#DC4985" />
      <stop
         id="stop3833"
         stop-color="#F18DA2"
         offset="1" />
    </linearGradient>
    <linearGradient
       gradientUnits="userSpaceOnUse"
       y2="59"
       x2="12.6399"
       y1="33.7202"
       x1="12.6399"
       id="paint1_linear">
      <stop
         id="stop3836"
         stop-color="#DC4985" />
      <stop
         id="stop3838"
         stop-color="#F18DA2"
         offset="1" />
    </linearGradient>
    <linearGradient
       gradientUnits="userSpaceOnUse"
       y2="59"
       x2="46.3579"
       y1="33.7202"
       x1="46.3579"
       id="paint2_linear">
      <stop
         id="stop3841"
         stop-color="#DC4985" />
      <stop
         id="stop3843"
         stop-color="#F18DA2"
         offset="1" />
    </linearGradient>
    <linearGradient
       gradientUnits="userSpaceOnUse"
       y2="33.7307"
       x2="42.1459"
       y1="0"
       x1="42.1459"
       id="paint3_linear">
      <stop
         id="stop3846"
         stop-color="#DC4985" />
      <stop
         id="stop3848"
         stop-color="#F18DA2"
         offset="1" />
    </linearGradient>
    <linearGradient
       gradientUnits="userSpaceOnUse"
       y2="73.8215"
       x2="142.516"
       y1="-8.20239"
       x1="142.516"
       id="paint4_linear">
      <stop
         id="stop3851"
         stop-color="#DC4985" />
      <stop
         id="stop3853"
         stop-opacity="0.58"
         stop-color="#DE5088"
         offset="0.984375" />
    </linearGradient>
    <linearGradient
       gradientUnits="userSpaceOnUse"
       y2="73.8215"
       x2="142.516"
       y1="-8.20239"
       x1="142.516"
       id="paint5_linear">
      <stop
         id="stop3856"
         stop-color="#DC4985" />
      <stop
         id="stop3858"
         stop-opacity="0.58"
         stop-color="#DE5088"
         offset="0.984375" />
    </linearGradient>
    <linearGradient
       gradientUnits="userSpaceOnUse"
       y2="73.8215"
       x2="142.516"
       y1="-8.20239"
       x1="142.516"
       id="paint6_linear">
      <stop
         id="stop3861"
         stop-color="#DC4985" />
      <stop
         id="stop3863"
         stop-opacity="0.58"
         stop-color="#DE5088"
         offset="0.984375" />
    </linearGradient>
    <linearGradient
       gradientUnits="userSpaceOnUse"
       y2="73.8215"
       x2="142.516"
       y1="-8.20239"
       x1="142.516"
       id="paint7_linear">
      <stop
         id="stop3866"
         stop-color="#DC4985" />
      <stop
         id="stop3868"
         stop-opacity="0.58"
         stop-color="#DE5088"
         offset="0.984375" />
    </linearGradient>
  </defs>
  <g
     id="flowRoot3879"
     style="font-style:normal;font-weight:normal;font-size:38.66666794px;line-height:0.5;font-family:sans-serif;letter-spacing:0px;word-spacing:0px;fill:#dd4c86;fill-opacity:0.78823529;stroke:none;stroke-opacity:0.78823529"
     transform="matrix(1.1309095,0,0,0.98533,-9.9633069,-1.9706237)"
     aria-label="MASK
RCNN">
    <g
       id="g4922">
      <path
         d="m 76.083984,2.5122397 h 5.682943 l 7.19336,19.1822923 7.23112,-19.1822923 h 5.682943 V 30.700392 H 98.154949 V 5.9484378 L 90.886068,25.281772 H 87.053386 L 79.784505,5.9484378 V 30.700392 h -3.700521 z"
         style="font-size:38.66666794px;line-height:0.80000001;fill:#dd4c86;fill-opacity:0.78823529;stroke:none;stroke-opacity:0.78823529"
         id="path4838" />
      <path
         d="m 118.86654,6.2694013 -5.17318,14.0279957 h 10.36523 z m -2.15235,-3.7571616 h 4.32357 L 131.7806,30.700392 h -3.96484 l -2.56771,-7.23112 h -12.70638 l -2.56771,7.23112 h -4.02149 z"
         style="font-size:38.66666794px;line-height:0.80000001;fill:#dd4c86;fill-opacity:0.78823529;stroke:none;stroke-opacity:0.78823529"
         id="path4840" />
      <path
         d="m 152.79427,3.43737 v 3.7194011 q -2.17122,-1.0384115 -4.097,-1.5481771 -1.92579,-0.5097656 -3.7194,-0.5097656 -3.11524,0 -4.81446,1.2083333 -1.68034,1.2083334 -1.68034,3.4361981 0,1.8691402 1.11394,2.8320312 1.13281,0.944011 4.26692,1.529297 l 2.30339,0.472005 q 4.26693,0.811849 6.28711,2.869792 2.03906,2.039063 2.03906,5.475261 0,4.097005 -2.75651,6.211588 -2.73763,2.114584 -8.04297,2.114584 -2.0013,0 -4.26693,-0.453125 -2.24674,-0.453125 -4.66341,-1.340495 v -3.927084 q 2.32227,1.302735 4.55013,1.963542 2.22787,0.660807 4.38021,0.660807 3.26628,0 5.04102,-1.283854 1.77474,-1.283854 1.77474,-3.66276 0,-2.076823 -1.28386,-3.247396 -1.26497,-1.170573 -4.17252,-1.75586 l -2.32227,-0.453125 q -4.26693,-0.849609 -6.17383,-2.662109 -1.9069,-1.8125 -1.9069,-5.041016 0,-3.7382813 2.62435,-5.8906251 2.64323,-2.1523438 7.26888,-2.1523438 1.98242,0 4.04036,0.358724 2.05795,0.3587239 4.21029,1.0761719 z"
         style="font-size:38.66666794px;line-height:0.80000001;fill:#dd4c86;fill-opacity:0.78823529;stroke:none;stroke-opacity:0.78823529"
         id="path4842" />
      <path
         d="m 160.44076,2.5122397 h 3.8138 V 14.425652 L 176.9043,2.5122397 h 4.90885 l -13.99023,13.1406253 14.99089,15.047527 h -5.02214 L 164.25456,17.125521 v 13.574871 h -3.8138 z"
         style="font-size:38.66666794px;line-height:0.80000001;fill:#dd4c86;fill-opacity:0.78823529;stroke:none;stroke-opacity:0.78823529"
         id="path4844" />
      <path
         d="m 89.451172,48.41758 q 1.227214,0.415364 2.378907,1.774739 1.170573,1.359375 2.341146,3.738282 l 3.870443,7.703125 h -4.097006 l -3.60612,-7.23112 q -1.397135,-2.832031 -2.71875,-3.757162 -1.302734,-0.92513 -3.568359,-0.92513 H 79.897787 V 61.633726 H 76.083984 V 33.445574 h 8.609376 q 4.833333,0 7.21224,2.020182 2.378906,2.020183 2.378906,6.098308 0,2.662109 -1.246094,4.417969 -1.227213,1.755859 -3.58724,2.435547 z M 79.897787,36.579689 V 46.5862 h 4.795573 q 2.75651,0 4.153646,-1.264974 1.416015,-1.283855 1.416015,-3.757162 0,-2.473307 -1.416015,-3.719401 -1.397136,-1.264974 -4.153646,-1.264974 z"
         style="font-size:38.66666794px;line-height:0.80000001;fill:#dd4c86;fill-opacity:0.78823529;stroke:none;stroke-opacity:0.78823529"
         id="path4846" />
      <path
         d="m 122.13281,35.616798 v 4.021485 q -1.92578,-1.79362 -4.11588,-2.68099 -2.17123,-0.88737 -4.62565,-0.88737 -4.83334,0 -7.40104,2.964193 -2.56771,2.945313 -2.56771,8.533854 0,5.569662 2.56771,8.533855 2.5677,2.945312 7.40104,2.945312 2.45442,0 4.62565,-0.887369 2.1901,-0.88737 4.11588,-2.68099 v 3.983724 q -2.0013,1.359375 -4.24804,2.039063 -2.22787,0.679687 -4.72006,0.679687 -6.40039,0 -10.08203,-3.908203 -3.681638,-3.927084 -3.681638,-10.705079 0,-6.796875 3.681638,-10.705078 3.68164,-3.927084 10.08203,-3.927084 2.52995,0 4.75782,0.679688 2.24674,0.660807 4.21028,2.001302 z"
         style="font-size:38.66666794px;line-height:0.80000001;fill:#dd4c86;fill-opacity:0.78823529;stroke:none;stroke-opacity:0.78823529"
         id="path4848" />
      <path
         d="m 128.02344,33.445574 h 5.13541 l 12.4987,23.581381 V 33.445574 h 3.70052 v 28.188152 h -5.13541 l -12.4987,-23.581381 v 23.581381 h -3.70052 z"
         style="font-size:38.66666794px;line-height:0.80000001;fill:#dd4c86;fill-opacity:0.78823529;stroke:none;stroke-opacity:0.78823529"
         id="path4850" />
      <path
         d="m 156.94792,33.445574 h 5.13542 l 12.4987,23.581381 V 33.445574 h 3.70052 v 28.188152 h -5.13542 l -12.4987,-23.581381 v 23.581381 h -3.70052 z"
         style="font-size:38.66666794px;line-height:0.80000001;fill:#dd4c86;fill-opacity:0.78823529;stroke:none;stroke-opacity:0.78823529"
         id="path4852" />
    </g>
  </g>
  <path
     id="path3889"
     d="m 33.986536,43.376835 v -6.356321 h 12.334953 c 11.451606,0 12.346335,-0.04425 12.493893,-0.617976 0.08742,-0.339886 0.09847,0.07956 0.02456,0.932109 -0.07391,0.852547 -0.13438,3.99098 -0.13438,6.974297 v 5.424212 h -1.94221 -1.942209 v -6.003192 -6.003192 h -8.475095 -8.475095 v 6.003192 6.003192 h -1.942209 -1.942209 z"
     style="stroke-width:0.35312897" />
  <path
     id="path3891"
     d="M 76.008882,16.171051 V 2.7372969 l 2.68038,0.1031363 2.68038,0.1031364 3.411094,9.0885374 c 1.876102,4.998696 3.490549,9.090056 3.587659,9.091912 0.09711,0.0019 1.272315,-2.896177 2.611565,-6.440071 1.339251,-3.543894 2.902514,-7.6749813 3.473919,-9.1801935 l 1.038918,-2.7367494 h 2.617556 2.617557 V 16.185905 29.604806 h -1.589082 -1.58908 v -11.82982 c 0,-6.506401 -0.119181,-11.8275899 -0.264847,-11.8248637 -0.145666,0.00272 -1.788763,4.0946077 -3.651328,9.0930707 l -3.386481,9.088114 H 88.388051 86.52901 l -3.40173,-9.093071 c -1.870952,-5.001188 -3.522894,-9.0930703 -3.670984,-9.0930703 -0.14809,0 -0.269254,5.3234193 -0.269254,11.8298203 v 11.82982 h -1.58908 -1.58908 z"
     style="stroke-width:0.35312897" />
</svg>
